Coordinates
version=1
nRows=6
nColumns=40
inDegrees=yes

Units are S.I. units (second, meters, Newtons, ...)
If the header above contains a line with 'inDegrees', this indicates whether rotational values are in degrees (yes) or radians (no).

endheader
time	pelvis_tilt	pelvis_list	pelvis_rotation	pelvis_tx	pelvis_ty	pelvis_tz	hip_flexion_r	hip_adduction_r	hip_rotation_r	knee_angle_r	knee_angle_r_beta	ankle_angle_r	subtalar_angle_r	mtp_angle_r	hip_flexion_l	hip_adduction_l	hip_rotation_l	knee_angle_l	knee_angle_l_beta	ankle_angle_l	subtalar_angle_l	mtp_angle_l	lumbar_extension	lumbar_bending	lumbar_rotation	arm_flex_r	arm_add_r	arm_rot_r	elbow_flex_r	pro_sup_r	wrist_flex_r	wrist_dev_r	arm_flex_l	arm_add_l	arm_rot_l	elbow_flex_l	pro_sup_l	wrist_flex_l	wrist_dev_l
     10.00000000000000000000	     -9.78327727092642618345	     -0.34147097372878504329	   -176.03196826138099595482	      0.27086943331840818150	      0.64422584965309048766	     -0.92327025654418959366	     51.23743129692530828834	    -47.46929951094161737046	     -3.92532690519135440965	     74.83676890773263323808	      1.30614801899405508223	     14.08629259504444597439	      0.00000000000000000000	      0.00000000000000000000	     57.11837955667517974234	    -48.53502643307963637653	     -2.58400565001622606331	     76.44800324516080536341	      1.33426936320336597674	      5.38117177783022970772	      0.00000000000000000000	      0.00000000000000000000	    -66.44961487760899387922	      3.50797318592341555998	     -6.29996175180121920079	     46.59243361734792898687	      3.02446036543641882943	     18.94118601680489888395	      5.51027630391422906797	     20.92627783705802713143	      0.00000000000000000000	      0.00000000000000000000	     50.81921925431942810292	     -9.53370468603670495611	     60.84753840897079868455	      6.41289457931534290225	     75.64744554210723492815	      0.00000000000000000000	      0.00000000000000000000
     10.00500000000000078160	     -9.81305559670807348027	     -0.35934794912778617038	   -176.02500919879713592309	      0.27062798548418359745	      0.64460288367866269699	     -0.92339693446063442206	     51.14115342980245770832	    -47.44381513824331619844	     -3.92210902953654194647	     74.80200316358403256345	      1.30554124229175605443	     14.10125012685507428500	      0.00000000000000000000	      0.00000000000000000000	     56.99910413036517553564	    -48.51895112940530196965	     -2.63905811972500048412	     76.38681305857910786017	      1.33320139297760564823	      5.34582345719598706069	      0.00000000000000000000	      0.00000000000000000000	    -66.49728293626704100916	      3.49027024178822298239	     -6.29695757228012276130	     46.67376915765836997707	      3.07798726772451924916	     18.54961171879394044026	      5.47748876701812381640	     21.18524798777173145936	      0.00000000000000000000	      0.00000000000000000000	     50.82723739757656034044	     -9.62445956795321322375	     61.95595644850795480352	      6.55004019968493977899	     74.91786651301639210487	      0.00000000000000000000	      0.00000000000000000000
     10.00999999999999978684	     -9.75192386185088544437	     -0.30907733798808734171	   -175.94794454968524632932	      0.27035912811532808453	      0.64476700396615149735	     -0.92333931882339193020	     51.05157470968214283857	    -47.43456394508699958124	     -4.03221719190401284294	     74.78478752928711514869	      1.30524077279045558342	     14.12140075590155241514	      0.00000000000000000000	      0.00000000000000000000	     57.13135783702681891327	    -48.45661427412704114204	     -2.49879244583101378652	     76.36443427003544570653	      1.33281080943491114787	      5.31782029469061345850	      0.00000000000000000000	      0.00000000000000000000	    -66.44958282130170346136	      3.56931264171565221233	     -6.21766433377389304837	     46.70948241166998826657	      3.05515182624824266355	     18.20785984702240867250	      5.29233375753036661138	     21.53083617245088277059	      0.00000000000000000000	      0.00000000000000000000	     50.83498207972922244835	     -9.66851474573792479816	     62.87194364399965706980	      6.69717612228821668197	     74.41921167223908639698	      0.00000000000000000000	      0.00000000000000000000
     10.01500000000000056843	     -9.72004371041210646354	     -0.32715698006802285125	   -175.94494439699010968070	      0.27012955379681019563	      0.64509588361529346390	     -0.92348402013379415898	     51.02570821160148994977	    -47.39787280082182974184	     -4.00473271787143136891	     74.74377020286152628614	      1.30452488539396371792	     14.15159007157135562238	      0.00000000000000000000	      0.00000000000000000000	     57.06705936022279246345	    -48.42862060471014729046	     -2.54869745152398285981	     76.28904032831620440902	      1.33149493691585374400	      5.31292287332309065562	      0.00000000000000000000	      0.00000000000000000000	    -66.44947700610670437982	      3.54033940234053012830	     -6.14593079999395630608	     46.48982702646389242318	      2.88498860201033924255	     18.64275691053758521321	      5.72445301669677419909	     20.96891037097825716273	      0.00000000000000000000	      0.00000000000000000000	     50.99611838783594919278	     -9.48446099825072153067	     63.41793694159471783678	      6.34735032635837370663	     76.15853382418028161283	      0.00000000000000000000	      0.00000000000000000000
     10.01999999999999957367	     -9.69399069371882937673	     -0.27784684923898161912	   -175.88595761305859355161	      0.26989899988100257699	      0.64550057108547453932	     -0.92346373019944816285	     50.86852396058787206812	    -47.35959046920018522542	     -4.14823701047175408263	     74.69756201214349289330	      1.30371840032454455738	     14.13180098402790996204	      0.00000000000000000000	      0.00000000000000000000	     57.08329134208652533289	    -48.38361951219882683972	     -2.43764225016143720737	     76.21681175023390153456	      1.33023431041428352728	      5.29592969035913885278	      0.00000000000000000000	      0.00000000000000000000	    -66.45472004909183283416	      3.62006966386345219178	     -6.18806656175606395465	     46.55845883932458662002	      2.97708165986829786931	     18.58126588516112320804	      5.45973932712222609354	     21.98574299394021025478	      0.00000000000000000000	      0.00000000000000000000	     50.98065190883173158909	     -9.51188122724328266600	     62.81971574439108962906	      6.33199025641818380450	     75.53079443591516906054	      0.00000000000000000000	      0.00000000000000000000
     10.02500000000000035527	     -9.65211786129605009421	     -0.27686628771196586385	   -175.89135001349748677058	      0.26959305238269237748	      0.64584269927398429978	     -0.92357246050146757366	     50.83992447706856410150	    -47.32163489564990044300	     -4.15686129448829078115	     74.64827215485125577743	      1.30285813002695682883	     14.17698494055519198298	      0.00000000000000000000	      0.00000000000000000000	     57.04205499690790759360	    -48.38192002297530081023	     -2.48535298364363743673	     76.15517783055726397379	      1.32915859558501670001	      5.22170767897249188394	      0.00000000000000000000	      0.00000000000000000000	    -66.44731054162448913303	      3.62164999501659368164	     -6.18307121117045177527	     46.55212661735578905109	      2.93939423083474427045	     18.53413889141360471058	      5.49572206353472569873	     22.09152907367898777125	      0.00000000000000000000	      0.00000000000000000000	     50.96083228835014722335	     -9.55105662636384877828	     63.04828733964750853147	      6.39468655913705052996	     75.96616528869888895770	      0.00000000000000000000	      0.00000000000000000000
